<svg width="23" height="22" viewBox="0 0 23 22" fill="none" xmlns="http://www.w3.org/2000/svg">
<rect x="0.800003" width="22" height="22" rx="11" fill="#2D3A49"/>
<path d="M11.8 6.11672H7.95001C7.65827 6.11672 7.37848 6.23261 7.17219 6.4389C6.9659 6.64519 6.85001 6.92498 6.85001 7.21672V14.9167C6.85001 15.2085 6.9659 15.4882 7.17219 15.6945C7.37848 15.9008 7.65827 16.0167 7.95001 16.0167H15.65C15.9417 16.0167 16.2215 15.9008 16.4278 15.6945C16.6341 15.4882 16.75 15.2085 16.75 14.9167V11.0667" stroke="white" stroke-width="0.75" stroke-linecap="round" stroke-linejoin="round"/>
<path d="M15.925 5.29172C16.1438 5.07292 16.4406 4.95 16.75 4.95C17.0594 4.95 17.3562 5.07292 17.575 5.29172C17.7938 5.51053 17.9167 5.80729 17.9167 6.11672C17.9167 6.42616 17.7938 6.72292 17.575 6.94172L12.35 12.1667L10.15 12.7167L10.7 10.5167L15.925 5.29172Z" stroke="white" stroke-width="0.75" stroke-linecap="round" stroke-linejoin="round"/>
</svg>
