<svg width="22" height="22" viewBox="0 0 22 22" fill="none" xmlns="http://www.w3.org/2000/svg">
<rect width="22" height="22" rx="11" fill="#2D3A49"/>
<path d="M13.0147 9.50632C13.8439 9.50632 14.6391 9.8357 15.2254 10.422C15.8117 11.0083 16.141 11.8035 16.141 12.6326V16.28H14.0568V12.6326C14.0568 12.3562 13.947 12.0912 13.7516 11.8958C13.5562 11.7003 13.2911 11.5905 13.0147 11.5905C12.7383 11.5905 12.4733 11.7003 12.2778 11.8958C12.0824 12.0912 11.9726 12.3562 11.9726 12.6326V16.28H9.88841V12.6326C9.88841 11.8035 10.2178 11.0083 10.8041 10.422C11.3904 9.8357 12.1856 9.50632 13.0147 9.50632V9.50632Z" stroke="white" stroke-width="0.75" stroke-linecap="round" stroke-linejoin="round"/>
<path d="M7.80421 10.0274H5.72V16.28H7.80421V10.0274Z" stroke="white" stroke-width="0.75" stroke-linecap="round" stroke-linejoin="round"/>
<path d="M6.76211 8.46421C7.33764 8.46421 7.80421 7.99764 7.80421 7.4221C7.80421 6.84656 7.33764 6.38 6.76211 6.38C6.18657 6.38 5.72 6.84656 5.72 7.4221C5.72 7.99764 6.18657 8.46421 6.76211 8.46421Z" stroke="white" stroke-width="0.75" stroke-linecap="round" stroke-linejoin="round"/>
</svg>
